<?xml version="1.0" encoding="UTF-8" standalone="no"?>
<svg
   xmlns:dc="http://purl.org/dc/elements/1.1/"
   xmlns:cc="http://creativecommons.org/ns#"
   xmlns:rdf="http://www.w3.org/1999/02/22-rdf-syntax-ns#"
   xmlns:svg="http://www.w3.org/2000/svg"
   xmlns="http://www.w3.org/2000/svg"
   width="48"
   height="48"
   viewBox="0 0 48 48"
   version="1.1"
   id="svg8">
  <defs
     id="defs2" />
  <metadata
     id="metadata5">
    <rdf:RDF>
      <cc:Work
         rdf:about="">
        <dc:format>image/svg+xml</dc:format>
        <dc:type
           rdf:resource="http://purl.org/dc/dcmitype/StillImage" />
        <dc:title></dc:title>
      </cc:Work>
    </rdf:RDF>
  </metadata>
  <g
     id="layer1">
    <rect
       style="fill:#e9e9e9;fill-rule:evenodd;fill-opacity:1"
       id="rect261"
       width="38"
       height="31"
       x="5"
       y="9" />
    <g
       style="fill:#000000"
       id="g233"
       transform="scale(2)">
      <path
         d="M 0,0 H 24 V 24 H 0 Z M 0,0 H 24 V 24 H 0 Z"
         fill="none"
         id="path219" />
      <path
         d="M 21,3 H 3 C 1.9,3 1,3.9 1,5 v 14 c 0,1.1 0.9,2 2,2 h 18 c 1.1,0 2,-0.9 2,-2 V 5 C 23,3.9 22.1,3 21,3 Z m 0,16 H 3 V 5 h 10 v 4 h 8 z"
         id="path221"
         style="fill:#1d1d1d;fill-opacity:1;stroke-width:1;stroke-miterlimit:4;stroke-dasharray:none" />
    </g>
    <path
       style="fill:#aaaaaa;fill-opacity:1;fill-rule:evenodd"
       id="path255"
       d="m 40.207005,28.047718 -6.103504,3.523859 -6.103503,3.52386 0,-7.047719 0,-7.047718 6.103503,3.523859 z"
       transform="matrix(0.81920177,0,0,0.8581101,6.0623521,4.9796882)" />
    <path
       style="fill:#aaaaaa;fill-opacity:1;fill-rule:evenodd"
       id="path255-1"
       transform="matrix(-0.81920163,0,0,-0.85472476,41.937644,52.996938)"
       d="m 40.207005,28.047718 -6.103504,3.523859 -6.103503,3.52386 0,-7.047719 0,-7.047718 6.103503,3.523859 z" />
  </g>
</svg>
